<svg xmlns="http://www.w3.org/2000/svg" width="128" height="128" viewBox="0 0 128 128" version="1.1">
	<path d="M 48.293 1.508 C 27.410 6.046, 10.095 22.942, 4.398 44.339 C 2.740 50.564, 2.591 63.925, 4.097 71.201 C 5.544 78.191, 10.976 89.383, 15.668 95.042 C 26.600 108.228, 44.636 116.921, 61.187 116.983 L 65.874 117 65.366 120.250 C 64.308 127.009, 71.017 129.855, 79.334 126.176 C 84.687 123.808, 87.977 119.198, 88.024 114 C 88.052 110.832, 88.634 110.120, 94.151 106.500 C 101.729 101.527, 109.863 91.914, 113.632 83.475 C 115.209 79.943, 116.838 77.042, 117.250 77.027 C 117.662 77.012, 118 82.166, 118 88.481 L 118 99.962 115.250 100.610 C 107.050 102.542, 100.616 109.546, 102.982 113.965 C 105.356 118.402, 111.636 119.246, 118.025 115.987 C 124.866 112.497, 124.876 112.454, 125.205 83.495 L 125.500 57.500 123 57.149 C 119.872 56.710, 119.038 55.429, 119.002 51 C 118.954 45.193, 113.625 31.630, 108.653 24.663 C 102.490 16.025, 96.169 10.713, 86.500 6.043 C 73.825 -0.078, 62.031 -1.478, 48.293 1.508 M 55.270 46.483 C 44.926 50.979, 45.927 67.188, 56.783 70.969 C 60.492 72.261, 61.508 72.261, 65.217 70.969 C 76.202 67.143, 77.061 50.848, 66.510 46.440 C 62.249 44.660, 59.439 44.670, 55.270 46.483" stroke="none" fill="black" fill-rule="evenodd"/>
</svg>